<svg viewBox="0 0 123 34" xmlns="http://www.w3.org/2000/svg"><path d="m4 10v6a4 4 0 0 0 4 4v4a8 8 0 0 1 -8-8v-15l4-1v6h4v4z"/><path d="m12 10h8v4h-8z"/><path d="m81 24v-15l4-1v16z"/><path d="m123 16v8h-4v-8a4 4 0 0 0 -8 0v8h-4v-16h4v1.08a7.85 7.85 0 0 1 4-1.08 8 8 0 0 1 8 8z"/><path d="m36 1v8.08a7.85 7.85 0 0 0 -4-1.08 8 8 0 1 0 8 8v-16zm-4 19a4 4 0 1 1 4-4 4 4 0 0 1 -4 4z"/><path d="m58.75 18a8.13 8.13 0 0 0 0-4 8 8 0 0 0 -15.5 0 8.13 8.13 0 0 0 0 4 8 8 0 0 0 13.49 3.57l-2.83-2.83a4 4 0 0 1 -6.37-.74zm-7.75-6a4 4 0 0 1 3.46 2h-6.92a4 4 0 0 1 3.46-2z"/><path d="m67 13a1 1 0 0 0 1 1h4a5 5 0 0 1 4.9 4 4.71 4.71 0 0 1 .1 1 5 5 0 0 1 -5 5h-9v-4h9a1 1 0 0 0 1-1 1 1 0 0 0 -1-1h-4a5 5 0 0 1 -4.9-4 4.71 4.71 0 0 1 -.1-1 5 5 0 0 1 5-5h9v4h-9a1 1 0 0 0 -1 1z"/><path d="m88.52 28.81a8 8 0 0 0 15.48-2.81v-10a8 8 0 1 0 -8 8 7.85 7.85 0 0 0 4-1.08v3.08a4 4 0 0 1 -8 0zm7.48-8.81a4 4 0 1 1 4-4 4 4 0 0 1 -4 4z"/></svg>