<?xml version="1.0" encoding="UTF-8"?>
<svg width="200px" height="200px" viewBox="0 0 200 200" version="1.1" xmlns="http://www.w3.org/2000/svg" xmlns:xlink="http://www.w3.org/1999/xlink">
    <!-- Generator: Sketch 52.5 (67469) - http://www.bohemiancoding.com/sketch -->
    <title>分组</title>
    <desc>Created with Sketch.</desc>
    <g id="Page-1" stroke="none" stroke-width="1" fill="none" fill-rule="evenodd">
        <g id="iPhone-8" transform="translate(-94.000000, -287.000000)">
            <g id="分组" transform="translate(94.000000, 287.000000)">
                <circle id="椭圆形" fill="#000000" cx="100" cy="100" r="100"></circle>
                <path d="M89.74,51.96 L84.7,51.96 C81.2466494,51.96 78.1666802,52.3099965 75.46,53.01 C72.7533198,53.7100035 70.3266774,54.9233247 68.18,56.65 C66.0333226,58.3766753 64.1200084,60.7799846 62.44,63.86 C60.7599916,66.9400154 59.220007,70.8599762 57.82,75.62 L56,75.62 L56,50 L143.78,50 L143.78,75.62 L141.96,75.62 C140.559993,70.8599762 139.020008,66.9400154 137.34,63.86 C135.659992,60.7799846 133.746677,58.3766753 131.6,56.65 C129.453323,54.9233247 127.02668,53.7100035 124.32,53.01 C121.61332,52.3099965 118.533351,51.96 115.08,51.96 L110.04,51.96 L110.04,147.72 L122.92,147.72 L122.92,149.68 L76.86,149.68 L76.86,147.72 L89.74,147.72 L89.74,51.96 Z" id="T" fill="#FFFFFF"></path>
            </g>
        </g>
    </g>
</svg>