<svg width="124" height="124" viewBox="0 0 124 124" fill="none" xmlns="http://www.w3.org/2000/svg">
<path d="M42.5 3.00001H62V42H42.5C31.7304 42 23 33.2696 23 22.5C23 11.7305 31.7304 3.00001 42.5 3.00001Z" stroke="#CAA772" stroke-width="6"/>
<path d="M81.5 42L62 42L62 3L81.5 3C92.2696 3 101 11.7304 101 22.5C101 33.2696 92.2696 42 81.5 42Z" stroke="#CAA772" stroke-width="6"/>
<path d="M42.5 42H62V81H42.5C31.7304 81 23 72.2696 23 61.5C23 50.7304 31.7304 42 42.5 42Z" stroke="#CAA772" stroke-width="6"/>
<path d="M42.5 81H62V100.5C62 111.27 53.2696 120 42.5 120C31.7304 120 23 111.27 23 100.5C23 89.7304 31.7304 81 42.5 81Z" stroke="#CAA772" stroke-width="6"/>
<path d="M81.5 81C70.7304 81 62 72.2696 62 61.5C62 50.7304 70.7304 42 81.5 42C92.2696 42 101 50.7304 101 61.5C101 72.2696 92.2696 81 81.5 81Z" stroke="#CAA772" stroke-width="6"/>
<rect width="8" height="8" transform="translate(61 41)" fill="#CAA772"/>
</svg>
