<svg width="271" height="271" viewBox="0 0 271 271" fill="none" xmlns="http://www.w3.org/2000/svg">
<path d="M135.772 135.366C135.772 111.284 155.295 91.6826 179.377 91.6826V91.6826C203.46 91.6826 222.983 111.284 222.983 135.366V135.366C222.983 159.449 203.46 179.05 179.377 179.05V179.05C155.295 179.05 135.772 159.449 135.772 135.366V135.366Z" fill="#1ABCFE"/>
<path d="M48.563 222.772C48.563 198.646 68.1209 179.049 92.2468 179.049H135.773V222.811C135.773 246.893 116.251 266.416 92.1682 266.416V266.416C68.0857 266.416 48.563 246.854 48.563 222.772V222.772Z" fill="#0ACF83"/>
<path d="M135.772 4.31421V91.6818H179.299C203.425 91.6818 222.983 72.1239 222.983 47.998V47.998C222.983 23.8721 203.425 4.31421 179.299 4.31421L135.772 4.31421Z" fill="#FF7262"/>
<path d="M48.563 47.9988C48.563 72.1247 68.1209 91.6826 92.2468 91.6826H135.773V4.315H92.2468C68.1209 4.315 48.563 23.8729 48.563 47.9988V47.9988Z" fill="#F24E1E"/>
<path d="M48.563 135.365C48.563 159.491 68.1209 179.049 92.2468 179.049L135.773 179.049V91.681H92.2468C68.1209 91.681 48.563 111.239 48.563 135.365V135.365Z" fill="#A259FF"/>
</svg>
