<svg width="14" height="14" viewBox="0 0 14 14" fill="none" xmlns="http://www.w3.org/2000/svg">
<path d="M1.0001 8.00003H10.5901L7.2901 11.2873C7.1018 11.4755 6.99601 11.7307 6.99601 11.9967C6.99601 12.2628 7.1018 12.518 7.2901 12.7062C7.47841 12.8943 7.7338 13 8.0001 13C8.26641 13 8.5218 12.8943 8.7101 12.7062L13.7101 7.71027C13.8011 7.61524 13.8725 7.50319 13.9201 7.38054C14.0201 7.13728 14.0201 6.86443 13.9201 6.62117C13.8725 6.49852 13.8011 6.38646 13.7101 6.29144L8.7101 1.29556C8.61714 1.2019 8.50654 1.12757 8.38468 1.07684C8.26282 1.02612 8.13212 1 8.0001 1C7.86809 1 7.73739 1.02612 7.61553 1.07684C7.49367 1.12757 7.38307 1.2019 7.2901 1.29556C7.19637 1.38844 7.12198 1.49895 7.07121 1.62071C7.02044 1.74247 6.99431 1.87307 6.99431 2.00497C6.99431 2.13687 7.02044 2.26747 7.07121 2.38923C7.12198 2.51099 7.19637 2.6215 7.2901 2.71438L10.5901 6.00168H1.0001C0.734887 6.00168 0.480533 6.10695 0.292996 6.29433C0.10546 6.48171 0.000103951 6.73585 0.000103951 7.00085C0.000103951 7.26585 0.10546 7.51999 0.292996 7.70738C0.480533 7.89476 0.734887 8.00003 1.0001 8.00003Z" fill="#7AC1FF"/>
</svg>
