<svg width="22" height="22" viewBox="0 0 22 22" fill="none" xmlns="http://www.w3.org/2000/svg">
<path d="M22 0H0V22H22V0Z" fill="white" fill-opacity="0.01"/>
<path d="M2.2915 8.70837H19.7082V18.3334C19.7082 18.8396 19.2978 19.25 18.7915 19.25H3.20817C2.70191 19.25 2.2915 18.8396 2.2915 18.3334V8.70837Z" stroke="#A2BBD0" stroke-width="2" stroke-linejoin="round"/>
<path d="M2.2915 4.12504C2.2915 3.61878 2.70191 3.20837 3.20817 3.20837H18.7915C19.2978 3.20837 19.7082 3.61878 19.7082 4.12504V8.70837H2.2915V4.12504Z" stroke="#A2BBD0" stroke-width="2" stroke-linejoin="round"/>
<path d="M7.3335 1.83337V5.50004" stroke="#A2BBD0" stroke-width="2" stroke-linecap="round" stroke-linejoin="round"/>
<path d="M14.6665 1.83337V5.50004" stroke="#A2BBD0" stroke-width="2" stroke-linecap="round" stroke-linejoin="round"/>
<path d="M12.8335 15.5834H15.5835" stroke="#A2BBD0" stroke-width="2" stroke-linecap="round" stroke-linejoin="round"/>
<path d="M6.4165 15.5834H9.1665" stroke="#A2BBD0" stroke-width="2" stroke-linecap="round" stroke-linejoin="round"/>
<path d="M12.8335 11.9166H15.5835" stroke="#A2BBD0" stroke-width="2" stroke-linecap="round" stroke-linejoin="round"/>
<path d="M6.4165 11.9166H9.1665" stroke="#A2BBD0" stroke-width="2" stroke-linecap="round" stroke-linejoin="round"/>
</svg>
