<?xml version="1.0" encoding="UTF-8"?>
<svg width="123px" height="34px" viewBox="0 0 123 34" version="1.1" xmlns="http://www.w3.org/2000/svg" xmlns:xlink="http://www.w3.org/1999/xlink">
    <!-- Generator: Sketch 60.1 (88133) - https://sketch.com -->
    <title>active-2</title>
    <desc>Created with Sketch.</desc>
    <g id="页面-1" stroke="none" stroke-width="1" fill="none" fill-rule="evenodd">
        <g id="active-2" fill="#FFFFFF" fill-rule="nonzero">
            <path d="M4,10 L4,16 C4,18.209139 5.790861,20 8,20 L8,24 C3.581722,24 0,20.418278 0,16 L0,1 L4,0 L4,6 L8,6 L8,10 L4,10 Z" id="路径"></path>
            <polygon id="路径" points="12 10 20 10 20 14 12 14"></polygon>
            <polygon id="路径" points="81 24 81 9 85 8 85 24"></polygon>
            <path d="M123,16 L123,24 L119,24 L119,16 C119,13.790861 117.209139,12 115,12 C112.790861,12 111,13.790861 111,16 L111,24 L107,24 L107,7.99995589 L111,7.99995589 L111,9.08 C112.212555,8.36827963 113.594008,7.99528732 115,7.99995589 C119.418278,7.99995589 123,11.581722 123,16 L123,16 Z" id="路径"></path>
            <path d="M36,1 L36,9.08 C34.787445,8.36827963 33.405992,7.99528732 32,8 C27.581722,8 24,11.581722 24,16 C24,20.418278 27.581722,24 32,24 C36.418278,24 40,20.418278 40,16 L40,3.55271368e-15 L36,1 Z M32,20 C29.790861,20 28,18.209139 28,16 C28,13.790861 29.790861,12 32,12 C34.209139,12 36,13.790861 36,16 C36,17.060866 35.5785726,18.0782816 34.8284271,18.8284271 C34.0782816,19.5785726 33.060866,20 32,20 Z" id="形状"></path>
            <path d="M58.75,18 C59.0831218,16.6874736 59.0831218,15.3125264 58.75,14 C57.8436604,10.4601703 54.6540177,7.98431348 51,7.98431348 C47.3459823,7.98431348 44.1563396,10.4601703 43.25,14 C42.9168782,15.3125264 42.9168782,16.6874736 43.25,18 C43.9729026,20.8017833 46.1523972,22.9948367 48.9496433,23.7351012 C51.7468895,24.4753658 54.7258549,23.6474497 56.74,21.57 L53.91,18.74 C53.0432629,19.658387 51.7937458,20.1135566 50.5393799,19.9678375 C49.285014,19.8221184 48.1731188,19.0926246 47.54,18 L58.75,18 Z M51,12 C52.4275968,12.0014643 53.746202,12.7636638 54.46,14 L47.54,14 C48.253798,12.7636638 49.5724032,12.0014643 51,12 Z" id="形状"></path>
            <path d="M67,13 C67,13.5522847 67.4477153,14 68,14 L72,14 C74.3763431,13.999515 76.4247314,15.6716687 76.9,18 C76.9689019,18.328813 77.002426,18.6640542 77.0001228,19 C77.0001228,20.3260824 76.4732158,21.597852 75.5355339,22.5355339 C74.597852,23.4732158 73.3260824,24 72,24 L62.9998772,24 L62.9998772,20 L72,20 C72.5522847,20 73,19.5522847 73,19 C73,18.4477153 72.5522847,18 72,18 L68,18 C65.6236569,18.000485 63.5752686,16.3283313 63.1,14 C63.0310981,13.671187 62.997574,13.3359458 62.9998772,13 C62.9998772,10.2385763 65.2385763,8 68,8 L77.0001228,8 L77.0001228,12 L68,12 C67.4477153,12 67,12.4477153 67,13 L67,13 Z" id="路径"></path>
            <path d="M88.52,28.81 C89.8877982,32.4162646 93.6339648,34.5331771 97.4288919,33.8443047 C101.223819,33.1554323 103.986953,29.8569218 104,26 L104,16 C104,11.581722 100.418278,8 96,8 C91.581722,8 88,11.581722 88,16 C88,20.418278 91.581722,24 96,24 C97.405992,24.0047127 98.787445,23.6317204 100,22.92 L100,26 C100,28.209139 98.209139,30 96,30 C93.790861,30 92,28.209139 92,26 L88.52,28.81 Z M96,20 C93.790861,20 92,18.209139 92,16 C92,13.790861 93.790861,12 96,12 C98.209139,12 100,13.790861 100,16 C100,17.060866 99.5785726,18.0782816 98.8284271,18.8284271 C98.0782816,19.5785726 97.060866,20 96,20 Z" id="形状"></path>
        </g>
    </g>
</svg>